
<svg xmlns="http://www.w3.org/2000/svg" width="41" height="41" viewBox="0 0 41 41">
    <g fill="none" transform="translate(1.8 4.8)">
        <path fill="#00BAF1" d="M12.799 28.461L37.324 14.39 37.324 11.927 12.799 25.92 0.538 18.9 0.538 21.362 12.799 28.461 12.799 28.461 12.799 28.461 12.799 28.461z"/>
        <path fill="#2575D6" d="M12.799 24.095L37.324 10.024 37.324 7.562 12.799 21.554 0.538 14.534 0.538 16.996 12.799 24.095 12.799 24.095 12.799 24.095 12.799 24.095z"/>
        <path fill="#2575D6" d="M12.799 21.554L37.324 7.562 25.059 0.615 0.538 14.551z"/>
        <path fill="#FFF" d="M25.059 2.205L3.604 14.294l9.306 5.213 21.46-12.09-9.311-5.212zm-12.15 16.123l-7.206-4.034 19.36-10.915 7.207 4.038-19.36 10.91z"/>
        <ellipse cx="19.285" cy="10.565" fill="#FFF" rx="4.022" ry="2.24"/>
        <ellipse cx="25.508" cy="7.243" fill="#FFF" rx="1.739" ry="1"/>
        <ellipse cx="12.799" cy="14.364" fill="#FFF" rx="1.739" ry="1"/>
        <path fill="#00BAF1" d="M12.799 32.827L37.324 18.756 37.324 16.293 12.799 30.286 0.538 23.266 0.538 25.728 12.799 32.827 12.799 32.827 12.799 32.827 12.799 32.827z"/>
    </g>
</svg>